<svg width="40" height="40" fill="rgba(0,0,0,.25)" xmlns="http://www.w3.org/2000/svg"><path d="M35.286 32.897c.009-.013.022-.026.031-.04A19.902 19.902 0 0 0 40 20a19.92 19.92 0 0 0-4.679-12.857c-.008-.014-.022-.022-.03-.036-.05-.058-.095-.111-.144-.165-.017-.022-.035-.04-.053-.063l-.183-.21-.005-.004-.205-.228-.005-.004a20.542 20.542 0 0 0-.433-.45l-.004-.005-.214-.215-.014-.013a8.79 8.79 0 0 0-.2-.192c-.023-.022-.045-.045-.072-.067-.045-.045-.09-.085-.134-.125-.013-.013-.031-.027-.045-.045A19.904 19.904 0 0 0 20 0 19.924 19.924 0 0 0 6.415 5.321c-.013.014-.031.027-.044.045-.045.04-.09.085-.134.13a1.047 1.047 0 0 1-.072.066l-.2.192-.014.014-.214.214-.005.005c-.147.147-.29.299-.433.45l-.004.005a8.484 8.484 0 0 0-.206.228l-.004.004a4.099 4.099 0 0 0-.183.21l-.054.062c-.049.054-.094.112-.143.166-.009.013-.022.022-.03.035A19.923 19.923 0 0 0 0 20a19.92 19.92 0 0 0 4.679 12.857c.008.014.022.027.03.04l.14.166c.017.022.035.04.053.062l.183.21c0 .004.004.004.004.009.067.076.134.151.206.223l.004.004c.143.152.286.304.429.451l.004.005c.072.071.139.143.21.21l.013.013A19.963 19.963 0 0 0 20 40a19.924 19.924 0 0 0 14.031-5.75l.014-.013c.071-.072.142-.139.21-.21l.004-.005c.147-.147.29-.299.428-.45l.005-.005c.067-.076.138-.147.205-.223 0-.005.005-.005.005-.01a4.07 4.07 0 0 0 .183-.209c.018-.022.035-.04.053-.063.05-.053.1-.108.148-.165Zm.183-6.366a16.763 16.763 0 0 1-2.42 4.027 19.827 19.827 0 0 0-3.638-2.495c.518-2.094.839-4.393.924-6.813h6.406a16.692 16.692 0 0 1-1.272 5.281Zm1.272-7.781h-6.406c-.085-2.42-.406-4.719-.924-6.813a19.82 19.82 0 0 0 3.638-2.495 16.69 16.69 0 0 1 3.692 9.308ZM26.531 4.531a16.686 16.686 0 0 1 4.804 3.09 17.622 17.622 0 0 1-2.652 1.866c-.7-2.01-1.598-3.755-2.643-5.152.165.062.33.13.491.196Zm-4.044 31.277a5.05 5.05 0 0 1-1.237.732v-8.28a17.37 17.37 0 0 1 5.165 1.17 19.35 19.35 0 0 1-1.294 3.026c-.777 1.447-1.688 2.603-2.634 3.353ZM25.12 7.545c.49.92.924 1.933 1.294 3.026a17.37 17.37 0 0 1-5.165 1.17V3.464c.41.165.826.407 1.237.732.946.746 1.857 1.902 2.634 3.349Zm-3.871 18.21V21.25h6.585a30.997 30.997 0 0 1-.728 5.705l-.013.054a19.867 19.867 0 0 0-5.844-1.255Zm0-7.005v-4.505a19.869 19.869 0 0 0 5.844-1.254l.013.054a31.06 31.06 0 0 1 .728 5.705H21.25Zm-2.5 2.5v4.505a19.867 19.867 0 0 0-5.844 1.254l-.013-.054a30.948 30.948 0 0 1-.728-5.705h6.585Zm-6.585-2.5a31.03 31.03 0 0 1 .728-5.705l.013-.054a19.836 19.836 0 0 0 5.844 1.255v4.504h-6.585Zm6.585 9.509v8.277a4.995 4.995 0 0 1-1.237-.732c-.946-.746-1.861-1.907-2.638-3.353a20.158 20.158 0 0 1-1.295-3.027 17.423 17.423 0 0 1 5.17-1.165Zm0-16.518a17.37 17.37 0 0 1-5.165-1.17 19.34 19.34 0 0 1 1.294-3.026c.777-1.447 1.688-2.607 2.639-3.353.41-.321.821-.567 1.236-.732v8.281h-.004Zm-5.281-7.21c.165-.067.326-.134.49-.196-1.044 1.397-1.941 3.143-2.642 5.152A17.307 17.307 0 0 1 8.665 7.62a16.687 16.687 0 0 1 4.804-3.09ZM4.53 13.47a16.764 16.764 0 0 1 2.42-4.027c1.112.96 2.33 1.8 3.638 2.495-.518 2.094-.839 4.393-.924 6.813H3.26a16.69 16.69 0 0 1 1.272-5.281Zm-1.27 7.78h6.406c.085 2.42.406 4.719.924 6.813a19.826 19.826 0 0 0-3.638 2.495A16.69 16.69 0 0 1 3.26 21.25Zm10.21 14.219a16.688 16.688 0 0 1-4.804-3.09 17.62 17.62 0 0 1 2.652-1.866c.7 2.01 1.598 3.755 2.643 5.152-.165-.062-.33-.13-.491-.196Zm13.062 0c-.165.067-.326.134-.49.196 1.044-1.397 1.941-3.143 2.642-5.152a17.333 17.333 0 0 1 2.652 1.866 16.689 16.689 0 0 1-4.804 3.09Z"/></svg>