<svg width="160" height="46" fill="#d43831" xmlns="http://www.w3.org/2000/svg"><g fill-rule="evenodd" clip-rule="evenodd"><path d="M10.648 15.102c6.508-3.103 13.758-.912 13.758-.912S9.39 16.32 6.042 28.438c-3.134 11.33 9.151 16.562 15.193 16.623l7.856-.06s-1.016-.123-2.033-.488c2.651-.184 3.748-.548 3.748-.548s-.12.02-.917-.243c4.667-.427 5.902-1.199 5.902-1.199l-.479-.122c0-.101 3.49-.445 9.632-3.532-3.35 1.422-7.139 1.706-7.139 1.706l.54-.63s.358.101.578.021c1.096-.588 1.116-1.44 1.116-1.44s.02.669.499.14c.558-.507.12-.933.12-.933l-.319-.142s.618-.67 1.256-1.178c-.359-.162-.319-.73-.319-.73l.379-.04.099-.244-.298-.123-.22-.202.34-.102s2.152-3.247 5.463-6.15c-1.376.71-1.775.934-1.775.934s.614-1.072 5.363-3.958c3.197-1.942 3.889-3.633 3.889-3.633s-2.346 3.586-6.161 3.492c-4.088-.102-7.119.467-7.119.467s1.874-.367 2.931-1.441c0 0-3.64 1.297-5.802-.183-4.925-3.37-12.961-1.888-12.961-1.888s-7.572.982-9.133 6.942c-1.116 4.262 3.67 5.438 3.67 5.438s3.059.738 4.187-2.232c.678-1.785-.798-2.842-.798-2.842s-2.483-2.492-.637-4.586c2.073-2.355 8.374-.812 8.374-.812s8.535 2.152 2.952 12.38c-3.63 6.495-11.526 5.846-11.526 5.846s-8.016.364-9.013-8.2c-.279-2.556.08-3.937.08-3.937l.379-.33-.165-.121v-.168s.014-.168.328-.168.165-.365.165-.365l-.344-.03s-.015-.38.328-.669c-.164-.047-.15-.137-.15-.137s.165-.396.51-.244c.03.563.374.167.374.167s-.36.061-.134-.76c.373-.823 1.57-1.538 1.57-1.538s-.18-.016-.345-.198c1.092-.365 1.526-1.294 1.526-1.294l-.18-.046s-.134.198-.418.152c.06-.228.15-.335.15-.335l-.15-.365-.39-.03s-.284-.184.016-.503c.778-.153.718-.96.718-.96l.284.093.195-.304.12-.336.149-.166.463.197.27.137.672.594-.553-.99.12-.259.075-.244-.374-.045-.014-.183.388-.152.15-.167.06-.366.582-.044.27-.61s3.086-4.419 10.383-3.988c5.503.325 6.904 3.717 13.48 3.247 3.988-.284 5.064.163 5.064.163s-2.033-1.462-4.187-1.583a50.96 50.96 0 0 0 3.908-.366l-.279-.153-.268-.151-.21-.093-.269.184-.359.03-.568-.244-.269-.089-.269.029-.269.334-.389-.06-1.106-.214 1.195-.06.36-.244.269-.152h.359l.03.211.598.062.269.183.388-.183.39.122.298-.122.3-.152.209-.06.329.09.538-.487.27-.03.178.305.15.121-.15.243h.3l.09-.395-.06-.152.417-.122h.45l.06.305.15-.183.03-.214.388-.273 1.495-.822.51-.154.239-.181 1.106-.122s1.525-.487 2.782-2.13c0 0-4.936 3.257-12.293 1.49-5.128-1.23-5.952-2.526-5.952-2.526l.388-.152-.598-.184-.298-.15-.54.06-.42-.333h-.807l-.12-.214-.807-.061-.09-.152 1.615-.03.36.335.388-.062.479.243.21.032.269.182h.538l.18.244-.15.181.269.306.36.091v-.396l-.21-.244.21-.334h-.3l-.15-.122-.06-.549-.359-.09s-5.504-3.411-10.05-1.462c0 0 .27-.335.767-.518.141-.02.04-.162.04-.162l.759-.022-.06-.141.917-.02-.06-.203 1.058-.021 2.053-.264 2.732-.162-2.453-.142-.199.183-.339-.021-.247-.134-.39.216h-.24l-.06-.366-.2.218-.578.25-.24.019-.181.014-.095.229-.641-.182-.226.298-.182-.208-.27-.09.042.321-.32-.077-.4.122-.279.061-.319-.06-.02-.184-.358.244-.2-.041-.28-.041-.04-.527.5-.305s-4.049-.162-7.738 1.298c-3.689 1.462-4.068 2.132-8.175 3.004 3.17-1.035 5.025-2.313 5.982-2.922 2.652-1.543 8.216-4.627 10.11-5.764.04-.224.099-.224.099-.224l.22.142.299-.344.319-.081.498-.143.02-.183.24.021.06-.183.418-.121-.498-.063-.02-.141.518-.04L33 .75l.258.142.44-.487.359-.06.2-.346-.46.04-.16.142-.398.041-.04.142-.418.02s-5.185 2.13-11.366 3.308c.16-.181.3-.385.3-.385s-2.294.569-2.853 1.117c-.16-.223-.32-.385-.32-.385l-.138.182.139.223-.08.204-.239.101-.22-.162-.637-.02-.06.344-.18.122-.478.325-.18.141-.52-.04-.099-.305s-1.715 1.483-3.21 1.95c1.694-1.828 5.244-4.467 5.244-4.467l-.02-.222-.279-.02s-6.5 4.384-7.438 5.237c.639-.67 1.236-1.159 1.236-1.159s-2.771 1.442-3.27 2.801c-.099-.181-.14-.264-.14-.264s.579-.406.858-1.379C9.41 6.555 10.307 5.5 10.307 5.5L8.831 7.104l-.478.101-.638 1.036-.737 1.014.178.304-.079.346-.2-.202-.219-.346-2.692 2.921-.14-.262-1.973 1.806 1.037-.285L0 16.443s4.008 1.826 10.648-1.34ZM81.02 31.446l.82 2.964h1.966V21.886H73.55v2.665h7.47c.044 1.088-.098 2.104-.425 3.047a6.96 6.96 0 0 1-1.458 2.465 6.802 6.802 0 0 1-2.376 1.649c-.94.4-2.02.6-3.244.6-1.31 0-2.463-.261-3.457-.783a7.576 7.576 0 0 1-2.506-2.099c-.678-.877-1.19-1.887-1.54-3.03a12.183 12.183 0 0 1-.525-3.582c0-1.265.153-2.503.46-3.714.305-1.21.78-2.287 1.425-3.23a7.395 7.395 0 0 1 2.49-2.282c1.015-.578 2.233-.867 3.653-.867.874 0 1.699.106 2.474.317.776.21 1.47.527 2.08.95.612.421 1.126.96 1.54 1.615.416.655.7 1.438.853 2.348h3.112c-.218-1.399-.627-2.592-1.228-3.58a8.352 8.352 0 0 0-2.228-2.449 9.013 9.013 0 0 0-3.015-1.416c-1.125-.3-2.32-.45-3.588-.45-1.857 0-3.478.35-4.866 1.05a10.22 10.22 0 0 0-3.473 2.815c-.928 1.177-1.627 2.548-2.097 4.113a17.123 17.123 0 0 0-.704 4.947c0 1.554.25 3.053.753 4.497a11.632 11.632 0 0 0 2.196 3.83 10.604 10.604 0 0 0 3.506 2.648c1.376.655 2.938.983 4.685.983 1.376 0 2.742-.272 4.096-.816 1.354-.544 2.49-1.438 3.408-2.681Zm20.587 2.897c-.481.29-1.147.433-1.999.433-.72 0-1.294-.205-1.72-.616-.426-.41-.639-1.082-.639-2.015-.764.933-1.655 1.604-2.67 2.015-1.016.411-2.114.617-3.293.617-.765 0-1.491-.09-2.18-.267a5.029 5.029 0 0 1-1.785-.833 3.983 3.983 0 0 1-1.196-1.482c-.295-.61-.442-1.349-.442-2.215 0-.977.163-1.777.491-2.398a4.34 4.34 0 0 1 1.294-1.516 5.89 5.89 0 0 1 1.835-.883 21.74 21.74 0 0 1 2.114-.5c.764-.155 1.49-.271 2.179-.35a11.953 11.953 0 0 0 1.818-.332c.524-.145.94-.356 1.245-.633.306-.278.459-.683.459-1.216 0-.622-.115-1.121-.344-1.499a2.377 2.377 0 0 0-.885-.866c-.36-.2-.764-.333-1.212-.4-.448-.066-.89-.1-1.327-.1-1.18 0-2.163.228-2.95.683-.785.456-1.212 1.316-1.277 2.582h-2.785c.044-1.066.262-1.965.655-2.698a5.024 5.024 0 0 1 1.573-1.782 6.543 6.543 0 0 1 2.245-.983c.84-.2 1.742-.3 2.703-.3.764 0 1.523.056 2.277.167a5.887 5.887 0 0 1 2.048.683 3.957 3.957 0 0 1 1.474 1.449c.372.621.557 1.432.557 2.431v8.86c0 .667.039 1.155.115 1.466.077.311.333.467.77.467.24 0 .524-.056.852-.167v2.198Zm-4.522-8.827c-.35.267-.808.461-1.376.583a20.69 20.69 0 0 1-1.786.3c-.622.078-1.25.167-1.884.267-.633.1-1.201.26-1.704.483a3.106 3.106 0 0 0-1.228.949c-.317.41-.475.972-.475 1.682 0 .466.092.86.278 1.183.186.322.426.582.72.782a3 3 0 0 0 1.033.433c.393.09.808.134 1.245.134.918 0 1.704-.128 2.36-.383.655-.256 1.19-.578 1.605-.966.415-.39.72-.811.917-1.266.197-.455.295-.883.295-1.283v-2.898Zm5.678-8.327V34.41h2.785V26.75c0-1.11.109-2.093.328-2.948.218-.855.567-1.582 1.048-2.182.481-.6 1.114-1.055 1.901-1.366.786-.31 1.736-.466 2.85-.466V16.79c-1.507-.044-2.752.267-3.735.933-.983.666-1.813 1.699-2.49 3.098h-.066v-3.631h-2.621Zm20.848 6.962h-9.731a5.941 5.941 0 0 1 .426-1.882c.24-.589.568-1.105.983-1.55a4.507 4.507 0 0 1 1.49-1.048c.579-.256 1.229-.383 1.95-.383.699 0 1.338.127 1.917.383.579.255 1.081.6 1.507 1.032.426.433.765.95 1.016 1.55.251.599.399 1.232.442 1.898Zm2.687 4.796h-2.752c-.241 1.133-.738 1.977-1.491 2.532-.754.555-1.721.833-2.9.833-.918 0-1.715-.156-2.392-.467a4.697 4.697 0 0 1-1.671-1.249 4.882 4.882 0 0 1-.95-1.799 6.955 6.955 0 0 1-.263-2.148h12.681a13.933 13.933 0 0 0-.278-3.298 9.648 9.648 0 0 0-1.246-3.197 7.473 7.473 0 0 0-2.392-2.415c-.993-.633-2.244-.95-3.751-.95-1.158 0-2.223.222-3.195.666a7.516 7.516 0 0 0-2.523 1.866c-.71.8-1.262 1.743-1.655 2.831-.393 1.088-.59 2.287-.59 3.598.044 1.31.235 2.52.574 3.63.338 1.11.846 2.066 1.523 2.865a6.96 6.96 0 0 0 2.507 1.865c.994.444 2.168.666 3.523.666 1.922 0 3.516-.488 4.783-1.465 1.267-.977 2.087-2.432 2.458-4.364Zm1.811-11.758V34.41h2.785v-9.726c0-.777.104-1.494.312-2.149a4.893 4.893 0 0 1 .933-1.715 4.148 4.148 0 0 1 1.557-1.133c.622-.266 1.36-.4 2.212-.4 1.07 0 1.911.311 2.523.933.611.622.917 1.466.917 2.532V34.41h2.785V23.085c0-.933-.093-1.782-.278-2.548-.186-.767-.508-1.427-.967-1.982-.459-.555-1.059-.988-1.802-1.3-.743-.31-1.671-.466-2.785-.466-2.512 0-4.347 1.044-5.505 3.131h-.066V17.19h-2.621ZM160 34.343c-.481.29-1.147.433-1.999.433-.721 0-1.294-.205-1.72-.616-.426-.41-.639-1.082-.639-2.015-.765.933-1.655 1.604-2.671 2.015-1.015.411-2.113.617-3.293.617-.764 0-1.49-.09-2.179-.267-.688-.178-1.283-.455-1.785-.833a3.978 3.978 0 0 1-1.196-1.482c-.295-.61-.443-1.349-.443-2.215 0-.977.164-1.777.492-2.398a4.345 4.345 0 0 1 1.294-1.516 5.89 5.89 0 0 1 1.835-.883c.688-.2 1.393-.366 2.114-.5.764-.155 1.49-.271 2.178-.35a11.931 11.931 0 0 0 1.819-.332c.524-.145.939-.356 1.245-.633.306-.278.459-.683.459-1.216 0-.622-.115-1.121-.344-1.499a2.378 2.378 0 0 0-.885-.866c-.36-.2-.764-.333-1.212-.4-.448-.066-.89-.1-1.327-.1-1.18 0-2.163.228-2.949.683-.787.456-1.213 1.316-1.278 2.582h-2.785c.043-1.066.262-1.965.655-2.698a5.017 5.017 0 0 1 1.573-1.782 6.538 6.538 0 0 1 2.244-.983c.841-.2 1.742-.3 2.704-.3.764 0 1.523.056 2.277.167a5.894 5.894 0 0 1 2.048.683 3.957 3.957 0 0 1 1.474 1.449c.372.621.557 1.432.557 2.431v8.86c0 .667.038 1.155.115 1.466.076.311.333.467.77.467.24 0 .524-.056.852-.167v2.198Zm-4.522-8.827c-.349.267-.808.461-1.376.583-.568.122-1.163.222-1.786.3-.622.078-1.25.167-1.884.267-.633.1-1.201.26-1.704.483a3.112 3.112 0 0 0-1.229.949c-.316.41-.475.972-.475 1.682 0 .466.093.86.279 1.183.186.322.426.582.721.782a3 3 0 0 0 1.032.433c.393.09.808.134 1.245.134.917 0 1.704-.128 2.359-.383.656-.256 1.191-.578 1.606-.966a3.8 3.8 0 0 0 .917-1.266c.197-.455.295-.883.295-1.283v-2.898Z"/></g></svg>